<svg xmlns="http://www.w3.org/2000/svg" xmlns:xlink="http://www.w3.org/1999/xlink" version="1.1" style="" xml:space="preserve" width="512" height="512"><rect id="backgroundrect" width="100%" height="100%" x="0" y="0" fill="none" stroke="none"/> <g class="currentLayer" style=""><title>Layer 1</title><g id="svg_1" class="selected" fill="#ffffff" fill-opacity="1"><g id="svg_2" fill="#ffffff" fill-opacity="1">
	<g id="svg_3" fill="#ffffff" fill-opacity="1">
		<path d="M491.318,235.318H20.682C9.26,235.318,0,244.577,0,256s9.26,20.682,20.682,20.682h470.636    c11.423,0,20.682-9.259,20.682-20.682C512,244.578,502.741,235.318,491.318,235.318z" data-original="#000000" class="active-path" data-old_color="#00508a" fill="#ffffff" id="svg_4" fill-opacity="1"/>
	</g>
</g><g id="svg_5" fill="#ffffff" fill-opacity="1">
	<g id="svg_6" fill="#ffffff" fill-opacity="1">
		<path d="M491.318,78.439H20.682C9.26,78.439,0,87.699,0,99.121c0,11.422,9.26,20.682,20.682,20.682h470.636    c11.423,0,20.682-9.26,20.682-20.682C512,87.699,502.741,78.439,491.318,78.439z" data-original="#000000" class="active-path" data-old_color="#00508a" fill="#ffffff" id="svg_7" fill-opacity="1"/>
	</g>
</g><g id="svg_8" fill="#ffffff" fill-opacity="1">
	<g id="svg_9" fill="#ffffff" fill-opacity="1">
		<path d="M491.318,392.197H20.682C9.26,392.197,0,401.456,0,412.879s9.26,20.682,20.682,20.682h470.636    c11.423,0,20.682-9.259,20.682-20.682S502.741,392.197,491.318,392.197z" data-original="#000000" class="active-path" data-old_color="#00508a" fill="#ffffff" id="svg_10" fill-opacity="1"/>
	</g>
</g></g></g></svg>