<?xml version="1.0" encoding="UTF-8" standalone="no" ?>
<!DOCTYPE svg PUBLIC "-//W3C//DTD SVG 1.1//EN" "http://www.w3.org/Graphics/SVG/1.1/DTD/svg11.dtd">
<svg xmlns="http://www.w3.org/2000/svg" xmlns:xlink="http://www.w3.org/1999/xlink" version="1.1" width="441" height="441" viewBox="0 0 441 441" xml:space="preserve">
<desc>Created with Fabric.js 3.6.3</desc>
<defs>
</defs>
<g transform="matrix(1 0 0 1 220.99 220.99)"  >
<linearGradient id="SVGID_170" gradientUnits="userSpaceOnUse" gradientTransform="matrix(1 0 0 1 35.51 35.51)"  x1="66.14655000196308" y1="374.8313" x2="374.8304500111241" y2="66.1467">
<stop offset="100%" style="stop-color:rgba(255, 255, 255, 1);"/>
<stop offset="100%" style="stop-color:rgba(255, 255, 255, 1);"/>
</linearGradient>
<path style="stroke: none; stroke-width: 1; stroke-dasharray: none; stroke-linecap: butt; stroke-dashoffset: 0; stroke-linejoin: miter; stroke-miterlimit: 4; fill: url(#SVGID_170); fill-rule: nonzero; opacity: 1;"  transform=" translate(-256, -256)" d="M 348.49 35.511 H 163.512 c -70.692 0 -128 57.307 -128 128 v 184.978 c 0 70.693 57.308 128 128 128 h 97.091 v -163.96 h -55.542 v -69.428 h 55.542 v -41.657 c 0 -57.194 32.284 -97.199 83.313 -97.199 c 24.438 0 41.656 0 55.542 0 v 69.428 h -27.771 c -27.743 0 -41.657 13.885 -41.657 41.657 v 27.771 h 69.428 l -13.886 69.428 h -55.542 v 163.96 h 18.459 c 70.693 0 128 -57.307 128 -128 V 163.511 C 476.49 92.819 419.183 35.511 348.49 35.511 z" stroke-linecap="round" />
</g>
</svg>