<svg width="291.319" height="291.319" xmlns="http://www.w3.org/2000/svg">

 <g>
  <title>background</title>
  <rect fill="none" id="canvas_background" height="402" width="582" y="-1" x="-1"/>
 </g>
 <g>
  <title>Layer 1</title>
  <g id="svg_1">
   <path id="svg_2" fill="#ffffff" d="m72.83,218.485l18.207,0l0,-114.653c-6.828,1.93 -12.982,5.435 -18.207,10.041c0,0.001 0,104.612 0,104.612zm-36.415,-77.564l0,77.436l1.174,0.127l17.033,0l0,-77.682l-17.033,0c0,0.001 -1.174,0.119 -1.174,0.119zm-36.415,38.709c0,14.102 7.338,26.328 18.207,33.147l0,-66.257c-10.869,6.809 -18.207,19.036 -18.207,33.11zm109.245,38.855l18.207,0l0,-109.6c-5.444,-3.396 -11.607,-5.635 -18.207,-6.5l0,116.1zm144.485,-77.682l-10.242,0c0.519,-3.168 0.847,-6.382 0.847,-9.705c0,-32.182 -25.245,-58.264 -56.388,-58.264c-16.896,0 -31.954,7.775 -42.287,19.955l0,125.695l108.07,0c20.747,0 37.589,-17.388 37.589,-38.855c0,-21.447 -16.842,-38.826 -37.589,-38.826z"/>
  </g>
  <g id="svg_3"/>
  <g id="svg_4"/>
  <g id="svg_5"/>
  <g id="svg_6"/>
  <g id="svg_7"/>
  <g id="svg_8"/>
  <g id="svg_9"/>
  <g id="svg_10"/>
  <g id="svg_11"/>
  <g id="svg_12"/>
  <g id="svg_13"/>
  <g id="svg_14"/>
  <g id="svg_15"/>
  <g id="svg_16"/>
  <g id="svg_17"/>
 </g>
</svg>