<svg width="300" height="300" xmlns="http://www.w3.org/2000/svg">

 <g>
  <title>background</title>
  <rect fill="none" id="canvas_background" height="302" width="302" y="-1" x="-1"/>
 </g>
 <g>
  <title>Layer 1</title>
  <g stroke="null" id="svg_1">
   <g stroke="null" id="svg_2">
    <g stroke="null" id="svg_3">
     <path stroke="#ffffff" fill="#ffffff" id="svg_4" d="m14.480566,148.209469c-0.640787,0 -1.165068,0.508951 -1.247849,1.211057l-2.946395,26.922263l2.946395,26.3244c0.082781,0.702107 0.607062,1.214123 1.247849,1.214123c0.631589,0 1.143606,-0.502819 1.244783,-1.211057l3.354169,-26.330531l-3.354169,-26.922263c-0.101177,-0.71437 -0.613194,-1.207991 -1.244783,-1.207991z"/>
     <path stroke="#ffffff" fill="#ffffff" id="svg_5" d="m3.397092,158.523385c-0.622391,0 -1.119078,0.478291 -1.201859,1.174266l-2.195233,16.645139l2.195233,16.36307c0.079715,0.692909 0.576402,1.1712 1.201859,1.1712c0.607062,0 1.100682,-0.478291 1.198793,-1.165068l2.596875,-16.369202l-2.596875,-16.660469c-0.098111,-0.680645 -0.591732,-1.158936 -1.198793,-1.158936z"/>
     <path stroke="#ffffff" fill="#ffffff" id="svg_6" d="m26.256948,142.929873c-0.79102,0 -1.422609,0.619325 -1.502324,1.471665l-2.799229,31.941253l2.799229,30.773119c0.079715,0.855405 0.711305,1.471665 1.502324,1.471665c0.77569,0 1.407279,-0.61626 1.499258,-1.468599l3.176343,-30.779251l-3.176343,-31.941253c-0.091979,-0.849273 -0.723568,-1.468599 -1.499258,-1.468599z"/>
     <path stroke="#ffffff" fill="#ffffff" id="svg_7" d="m38.131442,141.801597c-0.932054,0 -1.689348,0.741964 -1.762931,1.729206l-2.642864,32.821185l2.642864,31.745031c0.073583,0.98111 0.830877,1.72614 1.762931,1.72614c0.916724,0 1.670952,-0.74503 1.7568,-1.72614l3.001582,-31.745031l-3.001582,-32.827317c-0.085847,-0.98111 -0.840075,-1.723074 -1.7568,-1.723074z"/>
     <polygon stroke="#ffffff" fill="#ffffff" id="svg_8" points="52.109188079833984,208.36375427246094 52.109188079833984,208.36375427246094 52.109188079833984,208.369873046875 "/>
     <path stroke="#ffffff" fill="#ffffff" id="svg_9" d="m52.109189,145.894664c-0.073583,-1.119078 -0.944318,-1.974483 -2.011275,-1.974483c-1.082287,0 -1.94689,0.852339 -2.014341,1.983681l-2.495698,30.44506l2.495698,32.01177c0.067451,1.12521 0.93512,1.980615 2.014341,1.980615c1.070023,0 1.937692,-0.855405 2.011275,-1.980615l2.829888,-32.01177l-2.829888,-30.454258z"/>
     <path stroke="#ffffff" fill="#ffffff" id="svg_10" d="m62.165563,124.586187c-1.214123,0 -2.207497,0.987242 -2.268816,2.247354l-2.342399,49.53071l2.342399,32.008704c0.064385,1.244783 1.057759,2.235091 2.268816,2.235091c1.201859,0 2.195233,-0.987242 2.268816,-2.244288l0,0.012264l2.648996,-32.008704l-2.648996,-49.533776c-0.076649,-1.260113 -1.070023,-2.247354 -2.268816,-2.247354z"/>
     <path stroke="#ffffff" fill="#ffffff" id="svg_11" d="m74.138167,113.177721c-1.358224,0 -2.465038,1.097616 -2.526357,2.498764c0,0.006132 -2.192167,60.859461 -2.192167,60.859461l2.195233,31.809416c0.061319,1.395015 1.165068,2.492632 2.523291,2.492632c1.349026,0 2.465038,-1.097616 2.523291,-2.498764l0,0.018396l2.480368,-31.82168l-2.480368,-60.859461c-0.058253,-1.401147 -1.174266,-2.498764 -2.523291,-2.498764z"/>
     <path stroke="#ffffff" fill="#ffffff" id="svg_12" d="m86.585997,107.677375c-1.50539,0 -2.728711,1.214123 -2.780833,2.759371c0,0.003066 -2.038869,65.942835 -2.038869,65.942835l2.038869,31.481357c0.055187,1.532984 1.275443,2.744041 2.780833,2.744041c1.496192,0 2.719513,-1.211057 2.780833,-2.753239l0,0.018396l2.302542,-31.487489l-2.302542,-65.945901c-0.064385,-1.545248 -1.284641,-2.759371 -2.780833,-2.759371z"/>
     <path stroke="#ffffff" fill="#ffffff" id="svg_13" d="m101.974089,108.220051c-0.052121,-1.692414 -1.385817,-3.019978 -3.032242,-3.019978c-1.658689,0 -2.992385,1.33063 -3.038374,3.019978l-1.888636,68.15953l1.891702,31.285135c0.04599,1.674018 1.37662,2.998517 3.035308,2.998517c1.646425,0 2.983187,-1.324498 3.032242,-3.007714l2.127782,-31.26674l-2.127782,-68.168728z"/>
     <polygon stroke="#ffffff" fill="#ffffff" id="svg_14" points="101.97408294677734,207.6524658203125 101.97408294677734,207.6524658203125 101.97408294677734,207.66778564453125 "/>
     <path stroke="#ffffff" fill="#ffffff" id="svg_15" d="m111.392742,106.693199c-1.808921,0 -3.252992,1.437939 -3.295915,3.274454l-1.735338,66.424192l1.74147,30.981605c0.039858,1.818119 1.480862,3.26219 3.289783,3.26219c1.796657,0 3.240728,-1.447137 3.289783,-3.280586l0,0.024528l1.956087,-30.993868l-1.956087,-66.427258c-0.049055,-1.833449 -1.493126,-3.265256 -3.289783,-3.265256z"/>
     <path stroke="#ffffff" fill="#ffffff" id="svg_16" d="m123.941748,108.860839c-1.949956,0 -3.513599,1.554446 -3.550391,3.535061l-1.585105,63.995946l1.585105,30.797647c0.036792,1.962219 1.600435,3.510533 3.550391,3.510533c1.94689,0 3.507467,-1.548314 3.544259,-3.531995l0,0.024528l1.778261,-30.791515l-1.778261,-64.002078c-0.036792,-1.983681 -1.597369,-3.538127 -3.544259,-3.538127z"/>
     <path stroke="#ffffff" fill="#ffffff" id="svg_17" d="m138.689053,97.099786c-0.60093,-0.407774 -1.327564,-0.646919 -2.103254,-0.646919c-0.754228,0 -1.456335,0.229948 -2.048066,0.61626c-1.039363,0.677579 -1.735338,1.845713 -1.753734,3.176343l-0.012264,0.717436l-1.428741,75.416676c0,0.042924 1.441005,30.610622 1.441005,30.610622c0,0.049055 0.006132,0.082781 0.009198,0.128771c0.042924,0.852339 0.36485,1.637227 0.882999,2.259618c0.702107,0.837009 1.747602,1.37662 2.909603,1.37662c1.033231,0 1.974483,-0.42617 2.66126,-1.112946c0.689843,-0.683711 1.12521,-1.628029 1.143606,-2.67659l0.15943,-3.023044l1.444071,-27.544655l-1.600435,-76.155574c-0.024528,-1.309168 -0.699041,-2.461972 -1.704678,-3.142617z"/>
     <polygon stroke="#ffffff" fill="#ffffff" id="svg_18" points="140.3906707763672,206.99020385742188 140.3906707763672,206.9810028076172 140.3906707763672,206.99327087402344 140.3906707763672,206.9779510498047 140.3906707763672,206.96566772460938 140.3906707763672,206.96566772460938 140.3906707763672,206.9810028076172 "/>
     <path stroke="#ffffff" fill="#ffffff" id="svg_19" d="m151.241126,89.879432c-0.60093,-0.367916 -1.312234,-0.582534 -2.063396,-0.582534c-0.968846,0 -1.861042,0.34952 -2.563149,0.925922c-0.901395,0.74503 -1.483928,1.867174 -1.502324,3.124221l-0.009198,0.416972l-1.655623,82.646228l0.846207,15.274652l0.818613,14.869944c0.033726,2.198299 1.851845,4.019484 4.065473,4.019484c2.204431,0 4.02255,-1.821185 4.053209,-4.047077l0,0.03066l0,0.006132l1.808921,-30.150727l0,0l-1.802789,-83.072397c-0.021462,-1.468599 -0.824745,-2.753239 -1.995945,-3.461478z"/>
     <path stroke="#ffffff" fill="#ffffff" id="svg_20" d="m262.900607,137.089204c-5.046583,0 -9.872416,1.024033 -14.25675,2.860548c-2.940263,-33.225893 -30.803778,-59.292751 -64.793097,-59.292751c-8.321037,0 -16.424389,1.637227 -23.58649,4.405796c-2.780833,1.079221 -3.516665,2.182969 -3.544259,4.335278c0,0.003066 0,117.021859 0,117.021859c0.027594,2.253486 1.775195,4.010286 3.979626,4.22797c0.095045,0.012264 102.207103,0 102.207103,0c20.364158,0 36.868263,-16.323213 36.868263,-36.690437c-0.003066,-20.361092 -16.507171,-36.868263 -36.874395,-36.868263z"/>
    </g>
   </g>
  </g>
  <g id="svg_21"/>
  <g id="svg_22"/>
  <g id="svg_23"/>
  <g id="svg_24"/>
  <g id="svg_25"/>
  <g id="svg_26"/>
  <g id="svg_27"/>
  <g id="svg_28"/>
  <g id="svg_29"/>
  <g id="svg_30"/>
  <g id="svg_31"/>
  <g id="svg_32"/>
  <g id="svg_33"/>
  <g id="svg_34"/>
  <g id="svg_35"/>
 </g>
</svg>