<svg id="svg" xmlns="http://www.w3.org/2000/svg" xmlns:xlink="http://www.w3.org/1999/xlink" width="400" height="400" viewBox="0, 0, 400,400"><g id="svgg"><path id="path0" d="M242.969 101.144 C 228.706 104.197,216.221 110.797,205.518 120.942 L 200.000 126.172 200.000 213.086 L 200.000 300.000 277.930 299.988 C 364.921 299.976,360.861 300.214,371.894 294.474 C 412.933 273.123,408.226 210.599,364.453 195.637 C 359.074 193.799,356.599 193.451,346.693 193.139 L 335.183 192.776 335.663 184.865 C 338.822 132.842,292.086 90.631,242.969 101.144 M150.000 220.313 L 150.000 300.000 162.500 300.000 L 175.000 300.000 175.000 224.342 L 175.000 148.684 168.945 145.856 C 162.810 142.990,155.053 140.625,151.789 140.625 L 150.000 140.625 150.000 220.313 M121.085 143.309 C 116.004 145.182,108.231 149.368,104.102 152.454 L 100.000 155.519 100.000 227.760 L 100.000 300.000 112.500 300.000 L 125.000 300.000 125.000 221.094 C 125.000 177.695,124.736 142.212,124.414 142.243 C 124.092 142.273,122.594 142.753,121.085 143.309 M50.000 246.484 L 50.000 300.000 62.500 300.000 L 75.000 300.000 75.000 246.484 L 75.000 192.969 62.500 192.969 L 50.000 192.969 50.000 246.484 M20.664 203.702 C -3.226 222.586,-7.218 257.921,11.899 281.279 C 15.419 285.579,23.915 292.752,24.636 292.031 C 24.843 291.824,24.922 271.163,24.811 246.119 L 24.609 200.583 20.664 203.702 " stroke="none" fill="#000000" fill-rule="evenodd"></path></g></svg>